<svg xmlns="http://www.w3.org/2000/svg" xmlns:xlink="http://www.w3.org/1999/xlink" width="1916.113" height="866.429" viewBox="0 0 1916.113 866.429"><defs><linearGradient id="a" x1="-0.001" y1="0.17" x2="1.001" y2="0.779" gradientUnits="objectBoundingBox"><stop offset="0" stop-color="#00d3ff"/><stop offset="1" stop-color="#201059"/></linearGradient><linearGradient id="b" x1="-0.001" y1="0.17" x2="1.001" y2="0.779" gradientUnits="objectBoundingBox"><stop offset="0" stop-color="#e93b70"/><stop offset="1" stop-color="#1c0f58"/></linearGradient><linearGradient id="c" x1="-0.001" y1="0.17" x2="1.001" y2="0.779" gradientUnits="objectBoundingBox"><stop offset="0" stop-color="#e93b70"/><stop offset="1" stop-color="#160b46"/></linearGradient><filter id="d" x="369.726" y="27.147" width="19" height="19" filterUnits="userSpaceOnUse"><feOffset input="SourceAlpha"/><feGaussianBlur stdDeviation="1.5" result="e"/><feFlood flood-color="#ff81b9"/><feComposite operator="in" in2="e"/><feComposite in="SourceGraphic"/></filter></defs><g transform="translate(1.226 -213.353)"><path d="M104.815,83.125c.9-136.377,66.8,22.265,143.666,29.952s203.694-88.4,261.344,28.825-94.814,122.393-160.15,210.862-105.037,144.642-181.9,140.8S104.815,413.8,104.815,302.347,103.917,219.5,104.815,83.125Z" transform="translate(-105.059 214.251)" fill="#090743" opacity="0.51"/><g transform="translate(813.909 294.6)"><path d="M615.57,431.83c66.636-38.733,152.263-34.721,200.606-85.953,67.832-71.884,111.657-185.518,193.994-218.788,140.988-56.97,333.31,113.564,442.836,45.606,63.2-39.212,102.106-138.1,102.106-138.1V819.668H475s-80.731,8.3,75.434-116.983S455.386,524.939,615.57,431.83Z" transform="translate(-454.134 -34.6)" opacity="0.2"/></g><rect width="497" height="7" rx="3.5" transform="translate(1180.867 383.337) rotate(-20)" fill="url(#a)"/><rect width="497" height="7" rx="3.5" transform="translate(1433.706 408.337) rotate(-20)" fill="url(#b)"/><rect width="334" height="7" rx="3.5" transform="translate(748.759 875.588) rotate(-20)" fill="url(#c)"/><g transform="matrix(1, 0, 0, 1, -1.23, 213.35)" filter="url(#d)"><path d="M5,0A5,5,0,1,1,0,5,5,5,0,0,1,5,0Z" transform="translate(374.23 31.65)" fill="#dd0062"/></g></g></svg>